<svg xmlns="http://www.w3.org/2000/svg" width="1927" height="850.543" viewBox="0 0 1927 850.543">
  <g id="Path_7778" data-name="Path 7778" fill="#f8a22f">
    <path d="M 0.49993896484375 849.8406372070313 L 0.49993896484375 0.5000863075256348 L 1926.5 0.5000863075256348 L 1926.5 849.8328857421875 C 1921.807495117188 848.1591186523438 1892.74267578125 837.890869140625 1845.625 823.340576171875 C 1815.472534179688 814.0291137695313 1783.934936523438 804.8115234375 1751.888305664063 795.9436645507813 C 1711.830444335938 784.85888671875 1670.859252929688 774.29248046875 1630.11328125 764.5379638671875 C 1526.395141601563 739.7079467773438 1423.490844726563 719.9236450195313 1324.2587890625 705.735107421875 C 1295.57373046875 701.6334228515625 1266.818237304688 697.9519653320313 1238.790893554688 694.792724609375 C 1209.287841796875 691.4672241210938 1179.778930664063 688.628662109375 1151.084228515625 686.3560180664063 C 1120.9892578125 683.9727172851563 1090.956665039063 682.1460571289063 1061.820434570313 680.926513671875 C 1031.359497070313 679.6517333984375 1001.032104492188 679.0053100585938 971.680908203125 679.0053100585938 C 942.3297119140625 679.0053100585938 911.9404296875 679.6517333984375 881.3577880859375 680.926513671875 C 852.1049194335938 682.1460571289063 821.8977661132813 683.9727172851563 791.574951171875 686.3560180664063 C 762.6627807617188 688.628662109375 732.882568359375 691.4669799804688 703.0615844726563 694.792724609375 C 674.7320556640625 697.9519653320313 645.6246948242188 701.6334228515625 616.5475463867188 705.73486328125 C 515.958740234375 719.9234008789063 411.1625671386719 739.7074584960938 305.0701904296875 764.5372314453125 C 263.391357421875 774.291748046875 221.4099426269531 784.858154296875 180.2918395996094 795.9426879882813 C 147.3970794677734 804.810546875 114.9780349731445 814.0281982421875 83.93541717529297 823.33935546875 C 35.3331184387207 837.9175415039063 5.264340400695801 848.1968994140625 0.49993896484375 849.8406372070313 Z" stroke="none"/>
    <path d="M 0.99993896484375 849.139892578125 C 7.449558734893799 846.9244995117188 37.0544548034668 836.8792114257813 83.79160308837891 822.8605346679688 C 114.8389892578125 813.5479736328125 147.2625579833984 804.3291625976563 180.1616058349609 795.4600830078125 C 221.2851715087891 784.3739013671875 263.2720947265625 773.8062744140625 304.9563598632813 764.050537109375 C 411.0630493164063 739.2172241210938 515.8742065429688 719.4305419921875 616.477783203125 705.2398681640625 C 645.5594482421875 701.1376953125 674.6718139648438 697.45556640625 703.00634765625 694.2957763671875 C 732.8325805664063 690.9696044921875 762.6182861328125 688.1305541992188 791.53564453125 685.8577270507813 C 821.8646850585938 683.473876953125 852.0780639648438 681.646728515625 881.3368530273438 680.427001953125 C 911.9266357421875 679.1519775390625 942.3228149414063 678.5053100585938 971.680908203125 678.5053100585938 C 1001.039245605469 678.5053100585938 1031.37353515625 679.1519775390625 1061.84130859375 680.427001953125 C 1090.983764648438 681.646728515625 1121.022583007813 683.473876953125 1151.123779296875 685.8577270507813 C 1179.823974609375 688.1305541992188 1209.338256835938 690.9696044921875 1238.846801757813 694.2957763671875 C 1266.879272460938 697.45556640625 1295.6396484375 701.137939453125 1324.329467773438 705.2401123046875 C 1423.577026367188 719.4310302734375 1526.49658203125 739.2179565429688 1630.2294921875 764.051513671875 C 1670.981323242188 773.8074951171875 1711.9580078125 784.3755493164063 1752.021606445313 795.4617309570313 C 1784.072998046875 804.3310546875 1815.615356445313 813.5501098632813 1845.772583007813 822.8629150390625 C 1891.03857421875 836.8413696289063 1919.650390625 846.869873046875 1926 849.1242065429688 L 1926 1.000086307525635 L 0.99993896484375 1.000086307525635 L 0.99993896484375 849.139892578125 M 1927 850.54296875 C 1927 850.54296875 1453.43115234375 679.5053100585938 971.680908203125 679.5053100585938 C 489.9308776855469 679.5053100585938 -6.103515625e-05 850.54296875 -6.103515625e-05 850.54296875 L -6.103515625e-05 8.632114622741938e-05 L 1927 8.632114622741938e-05 L 1927 850.54296875 Z" stroke="none" fill="#707070"/>
  </g>
</svg>
